<?xml version="1.0" encoding="utf-8"?>
<!-- Generator: Adobe Illustrator 21.1.0, SVG Export Plug-In . SVG Version: 6.00 Build 0)  -->
<svg version="1.1" xmlns="http://www.w3.org/2000/svg" xmlns:xlink="http://www.w3.org/1999/xlink" x="0px" y="0px"
	 viewBox="0 0 256 256" style="enable-background:new 0 0 256 256;" xml:space="preserve">
<style type="text/css">
	.st0{display:none;fill:#FFFFFF;}
	.st1{font-family:'LucidaConsole';}
	.st2{font-size:12px;}
	.st3{fill:#4A4A4C;stroke:#373738;stroke-width:8;stroke-miterlimit:10;}
	.st4{fill:#373738;}
	.st5{fill:#FFFFFF;}
	.st6{fill:#FFCC00;}
	.st7{fill-rule:evenodd;clip-rule:evenodd;fill:#FFCC00;}
	.st8{font-family:'Audiowide-Regular';}
	.st9{font-size:36px;}
</style>
<g id="Layer_2">
	<text transform="matrix(1 0 0 1 -68 28)" class="st0 st1 st2">user@host ~ % curl █</text>
</g>
<g id="Layer_1">
</g>
<g id="Layer_3">
	<g>
		<g>
			<g>
				<rect x="1" y="1" class="st3" width="254" height="254"/>
				<rect x="1" y="0.99" class="st4" width="254" height="19.63"/>
				<circle class="st5" cx="245.18" cy="10.8" r="4.91"/>
			</g>
			<g>
				<g>
					<path class="st6" d="M58.54,147.41c0,1.05-0.13,1.99-0.4,2.82s-0.62,1.57-1.05,2.2s-0.95,1.17-1.52,1.62s-1.18,0.81-1.82,1.09
						s-1.27,0.49-1.92,0.62s-1.26,0.2-1.84,0.2H39c-0.84,0-1.77-0.15-2.77-0.45s-1.93-0.79-2.78-1.46s-1.56-1.56-2.13-2.65
						s-0.86-2.42-0.86-4v-8.25c0-1.56,0.29-2.89,0.86-3.97s1.28-1.97,2.13-2.65s1.78-1.17,2.78-1.46s1.92-0.45,2.77-0.45h10.99
						c1.56,0,2.89,0.28,3.98,0.84s1.98,1.27,2.65,2.12s1.16,1.78,1.46,2.78s0.46,1.93,0.46,2.79V147.41z M52.45,139.2
						c0-0.84-0.21-1.47-0.63-1.88s-1.03-0.61-1.83-0.61H39.04c-0.81,0-1.43,0.21-1.85,0.62s-0.63,1.02-0.63,1.82v8.25
						c0,0.8,0.21,1.41,0.63,1.83s1.04,0.63,1.85,0.63h10.95c0.83,0,1.45-0.21,1.85-0.63s0.61-1.03,0.61-1.83V139.2z"/>
					<path class="st6" d="M91.66,147.41c0,1.05-0.13,1.99-0.4,2.82s-0.62,1.57-1.05,2.2s-0.95,1.17-1.52,1.62s-1.18,0.81-1.82,1.09
						s-1.27,0.49-1.91,0.62s-1.25,0.2-1.83,0.2H72.14v-6.09h10.99c0.81,0,1.42-0.21,1.83-0.63s0.61-1.03,0.61-1.83v-8.2
						c0-0.84-0.21-1.47-0.62-1.88s-1.02-0.61-1.82-0.61H72.18c-0.83,0-1.45,0.21-1.88,0.62s-0.63,1.02-0.63,1.82v24.73h-6.09v-24.73
						c0-1.05,0.13-1.98,0.4-2.81s0.62-1.56,1.07-2.19s0.96-1.17,1.54-1.62s1.18-0.81,1.82-1.09s1.27-0.49,1.92-0.62
						s1.25-0.2,1.82-0.2h10.99c1.05,0,1.98,0.13,2.81,0.4s1.56,0.62,2.19,1.05s1.17,0.95,1.62,1.52s0.81,1.18,1.09,1.82
						s0.49,1.27,0.62,1.91s0.2,1.25,0.2,1.83V147.41z"/>
					<path class="st6" d="M119.79,136.72h-10.64v19.24h-6.16v-19.24h-7.92v-6.09h7.92v-8.27h6.16v8.27h10.64V136.72z"/>
					<path class="st6" d="M129.98,125.42h-6.09v-5.51h6.09V125.42z M129.98,155.96h-6.09v-25.34h6.09V155.96z"/>
					<path class="st6" d="M163.38,147.41c0,1.05-0.13,1.99-0.4,2.82s-0.62,1.57-1.05,2.2s-0.95,1.17-1.52,1.62s-1.18,0.81-1.82,1.09
						s-1.27,0.49-1.92,0.62s-1.26,0.2-1.84,0.2h-10.99c-0.84,0-1.77-0.15-2.77-0.45s-1.93-0.79-2.78-1.46s-1.56-1.56-2.13-2.65
						s-0.86-2.42-0.86-4v-8.25c0-1.56,0.29-2.89,0.86-3.97s1.28-1.97,2.13-2.65s1.78-1.17,2.78-1.46s1.92-0.45,2.77-0.45h10.99
						c1.56,0,2.89,0.28,3.98,0.84s1.98,1.27,2.65,2.12s1.16,1.78,1.46,2.78s0.46,1.93,0.46,2.79V147.41z M157.29,139.2
						c0-0.84-0.21-1.47-0.63-1.88s-1.03-0.61-1.83-0.61h-10.95c-0.81,0-1.43,0.21-1.85,0.62s-0.63,1.02-0.63,1.82v8.25
						c0,0.8,0.21,1.41,0.63,1.83s1.04,0.63,1.85,0.63h10.95c0.83,0,1.45-0.21,1.85-0.63s0.61-1.03,0.61-1.83V139.2z"/>
					<path class="st6" d="M196.64,155.96h-6.09V141.9c0-0.8-0.14-1.51-0.41-2.14s-0.64-1.18-1.11-1.63s-1.02-0.8-1.65-1.04
						s-1.32-0.36-2.05-0.36h-10.66v19.24h-6.09v-22.31c0-0.42,0.08-0.82,0.23-1.18s0.38-0.69,0.66-0.96s0.61-0.49,0.98-0.64
						s0.77-0.23,1.2-0.23h13.73c0.77,0,1.57,0.09,2.43,0.26s1.7,0.45,2.53,0.83s1.63,0.87,2.39,1.45s1.43,1.3,2.02,2.13
						s1.05,1.8,1.39,2.89s0.52,2.33,0.52,3.7V155.96z"/>
					<path class="st6" d="M226.47,147.41c0,1.05-0.13,1.99-0.4,2.82s-0.62,1.57-1.05,2.2s-0.95,1.17-1.52,1.62s-1.18,0.81-1.82,1.09
						s-1.27,0.49-1.92,0.62s-1.26,0.2-1.84,0.2h-16.5v-6.09h16.45c0.83,0,1.45-0.21,1.88-0.63s0.63-1.03,0.63-1.83
						c-0.08-1.63-0.9-2.44-2.46-2.44h-9.45c-1.34,0-2.48-0.23-3.42-0.7s-1.7-1.05-2.29-1.76s-1.01-1.46-1.27-2.27
						s-0.39-1.57-0.39-2.27c0-1.36,0.24-2.5,0.73-3.43s1.09-1.68,1.83-2.26s1.53-1,2.39-1.25s1.66-0.39,2.41-0.39h14.98v6.09h-14.93
						c-0.31,0-0.56,0.04-0.74,0.11s-0.31,0.16-0.4,0.28s-0.14,0.24-0.15,0.38s-0.02,0.26-0.02,0.39c0.02,0.25,0.06,0.45,0.14,0.59
						s0.18,0.24,0.29,0.3s0.25,0.1,0.4,0.11s0.29,0.01,0.43,0.01h9.45c1.56,0,2.89,0.28,3.98,0.84s1.98,1.27,2.65,2.12
						s1.16,1.78,1.46,2.78S226.47,146.55,226.47,147.41z"/>
				</g>
				<g>
					<g>
						<path class="st7" d="M51.97,96.79c0.83,2.82,3.89,4.39,6.84,3.53c2.79-0.82,4.47-3.55,3.93-6.23l-0.01-0.01
							c-0.5-0.29-0.96-0.64-1.41-0.99c-0.2-0.15-0.39-0.31-0.58-0.47l-0.05-0.04c-0.04-0.02-0.09-0.05-0.16-0.1
							c-0.31-0.19-0.65-0.33-0.97-0.52c-0.33-0.2-0.65-0.45-0.94-0.7c-0.04-0.04-0.08-0.08-0.12-0.12
							c-0.52-0.29-0.91-0.74-1.14-1.27c-0.51,0.01-1.04,0.08-1.55,0.23C52.85,90.99,51.14,93.97,51.97,96.79z M59.35,93.34
							c1.49-0.44,2.17,1.87,0.68,2.31C58.54,96.09,57.86,93.78,59.35,93.34z"/>
						<path class="st5" d="M29.53,96.49c0,9.39,7.67,17,17.13,17c3.07,0,5.95-0.8,8.44-2.21c-1.95,0.9-4.12,1.4-6.41,1.4
							c-8.43,0-15.26-6.78-15.26-15.15c0-4.52,1.99-8.57,5.15-11.35c0.01,0,0.02,0.01,0.03,0.01c0.42-0.29,0.86-0.56,1.32-0.79
							c2.07,0.79,4.19,1.49,6.43,1.97c-13.57,7.76-2.27,26.18,10.81,17.38c-3.25,2.18-8.12,2.33-10.46,0.42
							c-6.42-4.94-4.81-15.32,3.67-17.01c1.7,0.25,3.2,0.88,4.67,1.55c-6.37,1.96-4.66,12.43,3.39,10.67
							c-3.17,0.6-6.13-1.49-6.09-4.97c0.02-2.41,3.29-5.67,5.8-3.95l-0.02,0.01c-0.18,0.02-0.36,0.05-0.54,0.11
							c-1.75,0.52-2.74,2.36-2.22,4.12c0.52,1.76,2.36,2.77,4.1,2.26c1.32-0.39,2.21-1.54,2.34-2.84c3.17,3.3,3.26,9.86,0.25,12.23
							l-0.63-2.14c0.09,2.48-0.86,5.11-1.64,6.68c3.34-2.61,6.04-5.76,5.71-10.45c-1.13-15.91-17.78-12.9-27.67-19.64
							c-2.3-1.56-3.88-4.72-4.46-7.55c7.14,8.45,21.02,5.57,27.79,15.12c-4.73-10.62-13.08-13.24-20.29-12.53
							c5.08,0.65,10.45,1.3,15.55,6.99c-8.89-5.59-20.44-3.05-25.47-15.74c-0.73,5.16,1.27,11.57,4.69,14.41
							C31.87,86.71,29.53,90.93,29.53,96.49z M59.35,93.34c1.49-0.44,2.17,1.87,0.68,2.31C58.54,96.09,57.86,93.78,59.35,93.34z"/>
					</g>
					<g>
						<path class="st5" d="M116.22,109.4c0,0.58-0.1,1.13-0.31,1.63c-0.21,0.5-0.5,0.93-0.88,1.3c-0.38,0.36-0.81,0.65-1.31,0.86
							c-0.5,0.21-1.03,0.31-1.59,0.31H93.82c-1.73,0-3.48-0.19-5.25-0.56c-1.77-0.38-3.48-0.95-5.14-1.73s-3.21-1.78-4.67-2.98
							c-1.46-1.21-2.73-2.64-3.83-4.3s-1.95-3.55-2.58-5.69c-0.63-2.14-0.94-4.52-0.94-7.14V68.68h8.13v22.41
							c0,2.29,0.32,4.23,0.95,5.81c0.64,1.58,1.44,2.91,2.42,3.97c0.98,1.06,2.05,1.9,3.22,2.5c1.17,0.6,2.28,1.05,3.33,1.34
							c1.05,0.29,1.98,0.47,2.78,0.55c0.8,0.07,1.33,0.11,1.58,0.11h14.28V68.68h8.13V109.4z"/>
						<path class="st5" d="M170.44,83.74c0,1.85-0.23,3.51-0.69,4.97c-0.46,1.46-1.08,2.75-1.86,3.86c-0.78,1.11-1.68,2.07-2.7,2.86
							c-1.02,0.79-2.09,1.44-3.2,1.95c-1.12,0.51-2.24,0.88-3.38,1.11c-1.14,0.23-2.2,0.34-3.2,0.34l16.97,14.66h-12.56
							l-16.94-14.66h-5.84v-8.13h18.38c1.02-0.08,1.95-0.3,2.8-0.64s1.57-0.81,2.19-1.39c0.61-0.58,1.09-1.29,1.42-2.11
							c0.33-0.82,0.5-1.77,0.5-2.83v-5.13c0-0.46-0.06-0.81-0.17-1.05c-0.12-0.24-0.26-0.42-0.44-0.53
							c-0.18-0.11-0.37-0.18-0.56-0.2c-0.2-0.02-0.38-0.03-0.55-0.03h-26.81v36.69h-8.13V72.77c0-0.56,0.1-1.09,0.31-1.59
							c0.21-0.5,0.49-0.94,0.86-1.31c0.36-0.38,0.8-0.67,1.3-0.88c0.5-0.21,1.04-0.31,1.63-0.31h30.84c1.81,0,3.34,0.33,4.59,0.98
							s2.27,1.48,3.05,2.47c0.78,0.99,1.34,2.06,1.69,3.2c0.34,1.15,0.52,2.22,0.52,3.22V83.74z"/>
						<path class="st5" d="M219.75,113.49h-37.06c-0.58,0-1.13-0.1-1.63-0.31c-0.5-0.21-0.93-0.49-1.3-0.86
							c-0.37-0.36-0.65-0.8-0.86-1.3c-0.21-0.5-0.31-1.04-0.31-1.63V68.68h8.13v36.69h33.03V113.49z"/>
					</g>
				</g>
			</g>
			<g>
				<path class="st5" d="M121.79,192.07c1.98-0.85,4.05-1.27,6.21-1.27c2.17,0,4.24,0.42,6.21,1.27c1.98,0.85,3.68,1.98,5.11,3.41
					c1.43,1.43,2.57,3.13,3.41,5.11c0.85,1.98,1.27,4.05,1.27,6.21c0,2.17-0.42,4.24-1.27,6.21c-0.85,1.98-1.98,3.68-3.41,5.11
					c-1.43,1.43-3.13,2.57-5.11,3.41c-1.98,0.85-4.05,1.27-6.21,1.27c-2.17,0-4.24-0.42-6.21-1.27c-1.98-0.85-3.68-1.98-5.11-3.41
					c-1.43-1.43-2.57-3.13-3.41-5.11c-0.85-1.98-1.27-4.05-1.27-6.21c0-2.17,0.42-4.24,1.27-6.21c0.85-1.98,1.98-3.68,3.41-5.11
					C118.11,194.05,119.81,192.91,121.79,192.07z M122.08,220.85c1.89,0.81,3.86,1.21,5.92,1.21s4.03-0.4,5.92-1.21
					c1.89-0.81,3.51-1.9,4.88-3.26c1.36-1.36,2.45-2.99,3.26-4.88c0.81-1.89,1.21-3.86,1.21-5.92c0-2.06-0.4-4.03-1.21-5.92
					c-0.81-1.89-1.9-3.51-3.26-4.88c-1.36-1.36-2.99-2.45-4.88-3.26c-1.89-0.81-3.86-1.21-5.92-1.21s-4.03,0.4-5.92,1.21
					c-1.89,0.81-3.51,1.9-4.88,3.26c-1.36,1.36-2.45,2.99-3.26,4.88c-0.81,1.89-1.21,3.86-1.21,5.92c0,2.06,0.4,4.03,1.21,5.92
					c0.81,1.89,1.9,3.51,3.26,4.88C118.57,218.96,120.19,220.04,122.08,220.85z M114.27,206.8c0-1.94,0.4-3.8,1.2-5.59l6.55,17.95
					c-2.33-1.13-4.21-2.8-5.63-5.02C114.98,211.93,114.27,209.48,114.27,206.8z M137.27,206.1c0,0.23-0.02,0.46-0.04,0.69
					c-0.03,0.23-0.09,0.53-0.18,0.88c-0.09,0.36-0.16,0.62-0.21,0.79c-0.05,0.17-0.15,0.52-0.31,1.05
					c-0.16,0.54-0.26,0.88-0.31,1.04l-1.36,4.57l-4.96-14.75c0.55-0.04,1.07-0.08,1.57-0.14c0.23-0.02,0.38-0.13,0.46-0.33
					c0.08-0.2,0.07-0.38-0.04-0.55c-0.11-0.17-0.28-0.25-0.51-0.24l-3.66,0.18c-0.89-0.01-2.1-0.07-3.61-0.18
					c-0.14-0.01-0.26,0.02-0.37,0.09c-0.1,0.07-0.17,0.16-0.21,0.27c-0.04,0.11-0.04,0.22-0.03,0.33c0.02,0.11,0.07,0.21,0.16,0.29
					c0.09,0.08,0.21,0.13,0.35,0.14l1.43,0.14l2.14,5.86l-3,9l-5-14.86c0.55-0.04,1.07-0.08,1.57-0.14
					c0.23-0.02,0.38-0.13,0.46-0.33c0.08-0.2,0.07-0.38-0.04-0.55c-0.11-0.17-0.28-0.25-0.51-0.24l-3.66,0.18
					c-0.08,0-0.22,0-0.41-0.01s-0.35-0.01-0.46-0.01c1.25-1.9,2.88-3.41,4.9-4.53s4.21-1.67,6.56-1.67c1.75,0,3.42,0.32,5.01,0.95
					c1.59,0.63,3.01,1.52,4.26,2.66h-0.18c-0.65,0-1.2,0.24-1.64,0.72c-0.44,0.48-0.66,1.05-0.66,1.71c0,0.14,0.01,0.29,0.04,0.43
					c0.02,0.14,0.05,0.27,0.07,0.38c0.02,0.11,0.07,0.25,0.14,0.41c0.07,0.16,0.13,0.29,0.16,0.38c0.04,0.09,0.11,0.22,0.21,0.4
					s0.18,0.3,0.22,0.38c0.04,0.07,0.13,0.21,0.26,0.43c0.13,0.21,0.21,0.35,0.25,0.41C136.89,203.59,137.27,204.85,137.27,206.1z
					 M128.23,208l4.23,11.55c0.01,0.07,0.04,0.14,0.09,0.2c-1.5,0.52-3.02,0.79-4.55,0.79c-1.33,0-2.63-0.19-3.88-0.57L128.23,208z
					 M140.04,200.21c1.13,2.07,1.7,4.27,1.7,6.59c0,2.49-0.62,4.78-1.86,6.88c-1.24,2.1-2.9,3.76-4.98,4.97l4.2-12.11
					c0.7-2.01,1.05-3.65,1.05-4.93C140.14,201.12,140.11,200.65,140.04,200.21z"/>
			</g>
			<g>
				<path class="st5" d="M52.02,197.3c0,1.27-0.27,2.68-0.82,4.21c-0.95,2.77-2.75,4.65-5.39,5.63c-1.35,0.48-2.85,0.73-4.5,0.75
					c0,0.01-0.54,0.02-1.61,0.02l-1.61-0.02c-1.19,0-1.89,0.57-2.11,1.71c-0.02,0.1-0.53,3.25-1.52,9.46
					c-0.01,0.12-0.08,0.18-0.21,0.18h-5.27c-0.26,0-0.48-0.1-0.65-0.29c-0.17-0.2-0.24-0.43-0.21-0.69L32.27,192
					c0.06-0.35,0.22-0.63,0.49-0.86c0.27-0.23,0.57-0.34,0.92-0.34h10.68c0.4,0,0.99,0.08,1.74,0.23c0.76,0.15,1.42,0.35,1.99,0.57
					c1.27,0.49,2.25,1.22,2.92,2.2C51.69,194.78,52.02,195.94,52.02,197.3z M55.09,202.34c0.21,1,0.19,2.21-0.07,3.64
					c-1.04,5.29-4.4,7.93-10.09,7.93h-0.79c-0.3,0-0.56,0.1-0.79,0.29c-0.23,0.2-0.37,0.45-0.43,0.76l-0.07,0.34l-0.98,6.18
					l-0.04,0.27c-0.06,0.31-0.21,0.56-0.44,0.76c-0.23,0.2-0.5,0.29-0.79,0.29h-4.48c-0.25,0-0.45-0.09-0.59-0.27
					c-0.14-0.18-0.2-0.39-0.16-0.64c0.11-0.67,0.26-1.67,0.47-3c0.21-1.33,0.37-2.33,0.47-3c0.11-0.67,0.27-1.66,0.48-2.99
					c0.21-1.33,0.38-2.32,0.48-2.99c0.06-0.44,0.32-0.66,0.77-0.66h2.34c1.58,0.02,2.99-0.1,4.21-0.38
					c2.08-0.46,3.79-1.32,5.13-2.57c1.21-1.13,2.14-2.6,2.77-4.39c0.29-0.83,0.49-1.63,0.63-2.38c0.01-0.07,0.03-0.12,0.04-0.13
					c0.02-0.02,0.04-0.02,0.06-0.02c0.02,0.01,0.06,0.03,0.11,0.06C54.28,200.15,54.87,201.11,55.09,202.34z"/>
			</g>
			<path class="st5" d="M213.66,209.35c0.51,0.71,1.29,1.01,2.05,1.32c1.07,0.44,2.2,0.49,3.35,0.53c1.04,0.04,1.99-0.23,2.93-0.54
				c0.37-0.12,0.72-0.39,1.07-0.63c1.4-0.97,1.36-1.06,2.19-2.32c0.32-0.49,0.56-1.03,0.7-1.61c0.12-0.45,0.27-0.9,0.29-1.37
				c0.03-0.77,0.05-1.55,0-2.32c-0.06-0.85-0.31-1.67-0.55-2.5c-0.4-1.39-1.22-2.54-1.94-3.75c-0.03-0.05-0.07-0.09-0.12-0.12
				c-0.63-0.45-0.88-1.29-1.63-1.63c-0.61-0.76-1.49-1.2-2.27-1.73c-0.35-0.24-0.55-0.51-0.75-0.83c0.23-0.37,0.59-0.19,0.89-0.22
				c0.34,0.39,0.81,0.59,1.22,0.87c0.64,0.45,1.25,0.91,1.78,1.48c0.34,0.36,0.7,0.7,1.05,1.05c0.55,0.55,1.32,1.74,1.83,2.63
				c0.24,0.43,0.43,0.87,0.66,1.3c0.47,0.87,0.62,1.84,0.98,2.74c-0.09,0.6,0.22,1.15,0.18,1.75c-0.05,0.71,0,1.43-0.02,2.15
				c-0.02,0.95-0.29,1.83-0.65,2.71c-0.38,0.92-0.91,1.73-1.53,2.52c-0.89,1.13-2.04,1.86-3.3,2.41c-0.75,0.33-1.55,0.6-2.41,0.59
				c-0.39,0-0.76,0.19-1.17,0.17c-1.17-0.06-2.4-0.23-3.83-0.74c-1.12-0.4-1.93-0.92-2.92-1.74c-0.33-0.27-0.75-0.48-0.96-0.84
				c-0.32-0.53-0.86-0.87-1.13-1.43c-0.25-0.51-0.52-1-0.8-1.49c-0.29-0.52-0.47-1.09-0.63-1.64c-0.11-0.41-0.33-0.87-0.19-1.33
				c0.08-0.28-0.2-0.43-0.18-0.68c0.02-0.25-0.01-0.5,0.01-0.74c0.06-0.94,0.19-1.87,0.49-2.77c0.28-0.86,0.68-1.67,1.18-2.4
				c0.33-0.48,0.79-0.91,1.28-1.26c0.39-0.28,0.79-0.55,1.14-0.82c0.15-0.04,0.3,0.06,0.36-0.11c-0.11-0.11-0.22-0.1-0.36,0.11
				c-0.52-0.04-1.03,0.17-1.55,0.34c-0.69,0.22-1.27,0.66-1.91,0.98c-0.31,0.15-0.56,0.41-0.81,0.62c-1.23,1.07-2.32,2.29-2.96,3.81
				c-0.38,0.9-0.73,1.8-0.87,2.79c-0.08,0.54-0.1,1.06-0.13,1.59c-0.01,0.28,0.01,0.55,0,0.83c-0.06,1.71,0.41,3.31,1.17,4.81
				c0.4,0.79,0.89,1.53,1.48,2.21c0.33,0.39,0.64,0.79,1.02,1.14c0.85,0.8,1.78,1.47,2.78,2.06c0.73,0.44,1.5,0.78,2.31,1.03
				c0.64,0.2,1.29,0.36,1.96,0.47c0.7,0.12,1.39,0.14,2.09,0.14c0.36,0,0.72-0.01,1.08,0c0.35,0.01,0.65-0.27,1.01-0.17
				c0.24-0.3,0.7-0.01,0.94-0.33c1.76-0.36,3.18-1.44,4.11-2.09c0.7-0.5,1.16-1.18,1.71-1.78c0.42-0.45,0.71-1.02,1.02-1.56
				c0.07-0.12,0.14-0.22,0.23-0.34c0.23,0,0.47,0,0.71,0c0.24,0.18,0.25,0.54,0.54,0.69c0,0.39,0,0.77,0,1.21
				c-0.25,0.44-0.53,0.93-0.81,1.42c-0.79,1.36-1.83,2.53-3.01,3.54c-0.77,0.66-1.63,1.23-2.52,1.69c-0.72,0.36-1.49,0.66-2.28,0.89
				c-0.55,0.15-1.09,0.29-1.64,0.43c-0.05,0.01-0.09,0.06-0.14,0.05c-1.06-0.01-2.11,0.36-3.16,0.15c-1.02-0.2-2.1-0.09-3.04-0.63
				c-1.1-0.14-2.04-0.65-3-1.16c-0.92-0.5-1.78-1.08-2.59-1.75c-0.41-0.35-0.85-0.66-1.21-1.07c-0.83-0.95-1.59-1.94-2.27-3.02
				c-0.63-1-1.02-2.07-1.39-3.15c-0.23-0.68-0.35-1.42-0.42-2.15c-0.05-0.58-0.18-1.16-0.15-1.75c0.02-0.36-0.11-0.77,0.03-1.06
				c0.19-0.38,0.1-0.74,0.13-1.1c0.03-0.34,0.29-0.64,0.17-1.01c0.32-0.7,0.46-1.46,0.76-2.17c0.38-0.91,0.84-1.76,1.39-2.57
				c0.27-0.39,0.5-0.81,0.84-1.14c0.34-0.33,0.68-0.65,0.99-1c0.98-1.06,2.16-1.85,3.46-2.45c0.97-0.45,1.73-0.7,2.92-0.96
				c1.01-0.21,2.01-0.14,3-0.11c0.76,0.02,1.54,0.25,2.27,0.48c0.71,0.22,1.36,0.59,1.99,0.98c0.24,0.15,0.38,0.46,0.71,0.56
				c0.26,0.61,0.26,0.61,0,1.06c-0.36,0.11-0.71,0.03-1.04-0.15c-0.9-0.47-1.89-0.6-2.86-0.46c-0.64,0.1-1.3,0.29-1.88,0.63
				c-0.59,0.34-1.07,0.82-1.52,1.32c-0.24,0.27-0.38,0.62-0.56,0.93c-0.15,0.24-0.19,0.57-0.36,0.84c-0.06,0.1-0.01,0.27-0.01,0.41
				c0,0.63,0,1.27,0,1.87c0.38,0.5,0.54,1.08,0.87,1.58c0.51,0.75,1.15,1.35,1.89,1.83c1.18,0.76,2.49,1.15,3.88,0.99
				c1.34-0.16,2.56-0.66,3.54-1.64c0.53-0.53,1-1.08,1.29-1.79c0.24-0.61,0.5-1.2,0.45-1.88c-0.03-0.44-0.01-0.88,0-1.32
				c0.01-0.53-0.14-1.04-0.34-1.52c-0.32-0.78-0.64-1.57-1.15-2.26c-0.6-0.82-1.24-1.58-2.07-2.21c-0.57-0.43-1.15-0.84-1.76-1.18
				c-0.59-0.32-1.22-0.63-1.91-0.78c-0.5-0.11-0.98-0.33-1.5-0.36c-0.07,0-0.13-0.11-0.2-0.11c-0.95,0.04-1.89-0.34-2.83-0.16
				c-0.81,0.16-1.64,0.12-2.43,0.32c-0.74,0.19-1.52,0.35-2.2,0.68c-1.11,0.53-2.28,0.97-3.23,1.79c-0.52,0.45-1.12,0.81-1.62,1.29
				c-1.24,1.21-2.19,2.61-2.94,4.16c-0.4,0.83-0.61,1.73-0.97,2.58c-0.11,0.26,0.12,0.61-0.18,0.84c-0.08,0.95-0.81,1.26-1.54,1.57
				c-0.81,0.34-1.53,0.16-2.21-0.35c-0.24-0.77,0.07-1.46,0.28-2.16c0.47-1.5,1.19-2.9,2.03-4.2c0.57-0.89,1.3-1.7,2.06-2.47
				c1.08-1.09,2.27-2.02,3.56-2.84c0.77-0.49,1.63-0.85,2.47-1.22c0.96-0.43,1.98-0.7,3-0.93c0.61-0.14,1.24-0.31,1.89-0.24
				c0.13,0.01,0.35,0.12,0.38-0.16c0.88,0,1.77,0,2.65,0c-0.01,0.16,0.1,0.17,0.21,0.17c2-0.01,3.81,0.66,5.55,1.55
				c1.48,0.76,2.79,1.77,3.85,3.05c0.74,0.89,1.42,1.84,1.83,2.95c0.26,0.7,0.5,1.39,0.67,2.12c0.15,0.65,0.14,1.28,0.13,1.92
				c-0.02,1.41-0.47,2.68-1.26,3.85c-0.69,1.02-1.62,1.78-2.63,2.42c-0.55,0.34-1.23,0.48-1.86,0.68c-1.06,0.33-2.16,0.13-3.23,0.16
				c-0.32,0.01-0.65-0.14-0.96-0.27C213.97,209.32,213.81,209.38,213.66,209.35c-0.01-0.25-0.21-0.14-0.33-0.17
				c0.01-0.08-0.02-0.13-0.1-0.15c-0.01,0-0.05,0.04-0.05,0.05c0.02,0.08,0.07,0.11,0.15,0.1
				C213.34,209.43,213.53,209.32,213.66,209.35z"/>
		</g>
	</g>
	<text transform="matrix(1 0 0 1 50.2295 253.5918)" class="st0 st8 st9">&lt;</text>
	<text transform="matrix(1 0 0 1 182.7319 253.5918)" class="st0 st8 st9">&gt;</text>
</g>
</svg>
